<svg width="50" height="50" viewBox="0 0 50 50" fill="none" xmlns="http://www.w3.org/2000/svg">
<path d="M25 49.9791C38.7955 49.9791 49.979 38.7956 49.979 25C49.979 11.2045 38.7955 0.0209351 25 0.0209351C11.2044 0.0209351 0.020874 11.2045 0.020874 25C0.020874 38.7956 11.2044 49.9791 25 49.9791Z" fill="#382B73"/>
<path d="M25 46.6107C36.9352 46.6107 46.6106 36.9353 46.6106 25C46.6106 13.0648 36.9352 3.38934 25 3.38934C13.0647 3.38934 3.38928 13.0648 3.38928 25C3.38928 36.9353 13.0647 46.6107 25 46.6107Z" fill="#473080"/>
<path d="M23.4267 18.164C23.4138 18.1069 23.3983 18.0511 23.3797 17.9965C23.3721 17.9741 23.364 17.9519 23.3554 17.9301C23.3393 17.8885 23.3217 17.8475 23.3025 17.8078C23.2908 17.7833 23.2784 17.7592 23.2654 17.7356C23.2552 17.7168 23.2445 17.6981 23.2334 17.6797C23.2127 17.645 23.191 17.6111 23.1679 17.5781C23.1274 17.5197 23.083 17.464 23.0355 17.4113C23.0338 17.4094 23.0322 17.4078 23.0305 17.4059C22.9447 17.3117 22.8481 17.2274 22.7428 17.1548C22.7309 17.1467 22.7192 17.1387 22.7071 17.1308C22.6062 17.0649 22.4979 17.0096 22.3834 16.9665C22.374 16.963 22.3646 16.9596 22.3552 16.9563C22.2853 16.9314 22.2133 16.9111 22.1395 16.8954C22.1338 16.8942 22.1284 16.8931 22.1228 16.8919C22.0163 16.8705 21.906 16.8594 21.7933 16.8594H14.3307C13.7529 16.8594 13.2435 17.1521 12.9426 17.5975C12.9351 17.6086 12.9278 17.6199 12.9205 17.6312C12.8552 17.7331 12.8006 17.8425 12.7583 17.9578C12.7537 17.9705 12.7491 17.9835 12.7447 17.9965C12.6878 18.1649 12.6569 18.3454 12.6569 18.5333V27.4567C12.6569 28.3812 13.4062 29.1306 14.3307 29.1306H16.6966C17.0872 29.1306 17.4205 29.3274 17.6186 29.618L17.1832 31.1329L16.828 32.3689C16.8253 32.3781 16.8228 32.3875 16.8202 32.3967C16.8194 32.3994 16.8188 32.4023 16.8182 32.405C16.8165 32.4115 16.8146 32.4182 16.8129 32.4247C16.8121 32.4281 16.8113 32.4312 16.8104 32.4345C16.809 32.4408 16.8073 32.4471 16.806 32.4534C16.8054 32.4563 16.8046 32.4594 16.8039 32.4624C16.8023 32.4697 16.8006 32.4772 16.7991 32.4845C16.7987 32.4862 16.7983 32.4879 16.7981 32.4898C16.7721 32.613 16.7606 32.7356 16.7621 32.8559V34.273C16.7502 35.1755 17.4786 35.9657 18.4368 35.9657H18.4372C19.0265 35.9657 19.5723 35.6559 19.8744 35.1498L23.2309 29.527C23.3857 29.2676 23.4675 28.9712 23.4675 28.6691V18.5333C23.4675 18.4295 23.4579 18.3278 23.4399 18.2291C23.4359 18.2073 23.4315 18.1856 23.4267 18.164Z" fill="#382B73"/>
<path d="M37.343 18.5333C37.343 18.0709 37.1556 17.6525 36.8527 17.3496C36.8426 17.3395 36.8324 17.3295 36.8219 17.3197C36.8043 17.3029 36.7863 17.2864 36.7679 17.2705C36.7232 17.2316 36.6765 17.1952 36.628 17.1611C36.6131 17.1506 36.5981 17.1406 36.5828 17.1305C36.5746 17.1253 36.5667 17.1201 36.5585 17.1148C36.5447 17.1061 36.5307 17.0977 36.5165 17.0893C36.4947 17.0763 36.4725 17.064 36.4499 17.0523C36.4378 17.0458 36.4255 17.0395 36.4129 17.0333C36.3629 17.0084 36.3117 16.986 36.2589 16.9663C36.2495 16.9627 36.2401 16.9594 36.2307 16.9561C36.1608 16.9312 36.0889 16.9109 36.015 16.8952C36.0094 16.8939 36.0039 16.8929 35.9983 16.8916C35.8918 16.8703 35.7815 16.8592 35.6688 16.8592H28.2058C27.628 16.8592 27.1186 17.1519 26.8177 17.5973C26.8102 17.6084 26.8029 17.6197 26.7955 17.6309C26.7303 17.7328 26.6757 17.8422 26.6334 17.9575C26.6286 17.9703 26.6242 17.9833 26.6198 17.9962C26.5627 18.1648 26.5317 18.3454 26.5317 18.533V27.4565C26.5317 28.3809 27.2813 29.1303 28.2058 29.1303H30.5717C30.9623 29.1303 31.2953 29.3272 31.4937 29.6178L31.0583 31.1326L30.7031 32.3686C30.7004 32.3778 30.6978 32.3872 30.6953 32.3964C30.6945 32.3991 30.6939 32.4021 30.6932 32.4048C30.6916 32.4113 30.6897 32.418 30.688 32.4245C30.6872 32.4278 30.6863 32.4309 30.6855 32.4343C30.684 32.4406 30.6826 32.4468 30.6811 32.4531C30.6805 32.4561 30.6796 32.4592 30.679 32.4621C30.6773 32.4694 30.6757 32.477 30.6742 32.4843C30.6738 32.486 30.6734 32.4876 30.6732 32.4895C30.6472 32.6127 30.6357 32.7353 30.6372 32.8556V34.2728C30.6253 35.1753 31.3537 35.9655 32.3119 35.9655H32.3123C32.9016 35.9655 33.4474 35.6556 33.7495 35.1496L37.106 29.5268C37.2608 29.2674 37.3426 28.9709 37.3426 28.6688V27.2096C37.3426 27.2092 37.3426 27.2088 37.3426 27.2081V18.5333H37.343Z" fill="#382B73"/>
<path d="M16.7619 32.9124C16.75 33.8149 17.4784 34.6051 18.4366 34.6051H18.437C19.0263 34.6051 19.5721 34.2952 19.8742 33.7892L23.2307 28.1664C23.3855 27.9069 23.4673 27.6105 23.4673 27.3084V17.1726C23.4673 16.2482 22.7179 15.4988 21.7935 15.4988H14.3307C13.4062 15.4988 12.6569 16.2482 12.6569 17.1726V26.0961C12.6569 27.0205 13.4062 27.7699 14.3307 27.7699H16.6966C17.0872 27.7699 17.4202 27.9668 17.6186 28.2574L16.828 31.0082C16.7822 31.1676 16.7613 31.327 16.7621 31.4829V32.9124H16.7619Z" fill="#E7AD27"/>
<path d="M12.6569 17.1726V24.6356C12.6569 25.5601 13.4062 26.3094 14.3307 26.3094H16.6966C17.4387 26.3094 17.9742 27.0203 17.7692 27.7337L16.828 31.0084C16.5205 32.0783 17.3236 33.1446 18.4368 33.1446H18.4372C19.0265 33.1446 19.5723 32.8348 19.8744 32.3287L23.2309 26.7059C23.3857 26.4465 23.4675 26.15 23.4675 25.8479V17.1726C23.4675 16.2482 22.7182 15.4988 21.7937 15.4988H14.3307C13.4062 15.4988 12.6569 16.2482 12.6569 17.1726Z" fill="#FEDE3A"/>
<path d="M30.6373 32.9124C30.6254 33.8149 31.3539 34.6051 32.312 34.6051H32.3124C32.9018 34.6051 33.4476 34.2952 33.7497 33.7892L37.1062 28.1664C37.261 27.9069 37.3428 27.6105 37.3428 27.3084V17.1726C37.3428 16.2482 36.5934 15.4988 35.6689 15.4988H28.206C27.2815 15.4988 26.5321 16.2482 26.5321 17.1726V26.0961C26.5321 27.0205 27.2815 27.7699 28.206 27.7699H30.5719C30.9624 27.7699 31.2955 27.9668 31.4938 28.2574L30.7032 31.0082C30.6574 31.1676 30.6365 31.327 30.6373 31.4829V32.9124Z" fill="#A72973"/>
<path d="M26.5323 17.1726V24.6356C26.5323 25.5601 27.2817 26.3094 28.2062 26.3094H30.5721C31.3141 26.3094 31.8497 27.0203 31.6447 27.7337L30.7035 31.0084C30.3959 32.0783 31.1991 33.1446 32.3123 33.1446H32.3127C32.902 33.1446 33.4478 32.8348 33.7499 32.3287L37.1064 26.7059C37.2612 26.4465 37.343 26.15 37.343 25.8479V17.1726C37.343 16.2482 36.5936 15.4988 35.6692 15.4988H28.2062C27.2817 15.4988 26.5323 16.2482 26.5323 17.1726Z" fill="#EF5A9D"/>
</svg>
